<?xml version="1.0" standalone="no"?>
<!DOCTYPE svg PUBLIC "-//W3C//DTD SVG 20010904//EN" "http://www.w3.org/TR/2001/REC-SVG-20010904/DTD/svg10.dtd">
<svg version="1.0" xmlns="http://www.w3.org/2000/svg"
    width="702.000000pt" height="702.000000pt" viewBox="0 0 702.000000 702.000000"
    preserveAspectRatio="xMidYMid meet">
    <metadata> Created by potrace 1.16, written by Peter Selinger 2001-2019 </metadata>
    <g transform="translate(0.000000,702.000000) scale(0.100000,-0.100000)"
        fill="#000000" stroke="none">
        <path
            d="M3275 7014 c-864 -70 -1610 -402 -2213 -989 -587 -569 -942 -1295
-1044 -2130 -17 -146 -17 -624 0 -770 85 -693 333 -1288 760 -1825 99 -124
401 -425 522 -522 543 -431 1124 -672 1830 -760 141 -17 620 -17 765 0 1117
136 2052 737 2629 1691 495 816 627 1857 355 2787 -302 1036 -1069 1877 -2074
2277 -282 112 -545 179 -880 223 -106 14 -547 26 -650 18z m675 -119 c786
-110 1481 -461 2017 -1019 508 -528 826 -1189 928 -1926 22 -161 31 -544 16
-722 -67 -794 -398 -1521 -953 -2093 -537 -554 -1223 -901 -2000 -1011 -153
-21 -581 -30 -745 -15 -668 61 -1276 301 -1813 717 -148 114 -460 426 -574
574 -416 537 -656 1145 -717 1813 -15 164 -6 592 15 745 66 467 218 900 455
1300 268 454 665 860 1119 1144 447 280 960 454 1497 508 138 13 620 4 755
-15z" />
        <path
            d="M3310 6824 c-834 -61 -1569 -392 -2145 -969 -483 -482 -798 -1081
-919 -1745 -42 -231 -51 -341 -50 -605 1 -342 36 -607 119 -894 213 -741 661
-1373 1285 -1816 782 -554 1794 -739 2732 -500 1174 299 2104 1233 2396 2405
71 285 97 502 96 820 -1 314 -25 513 -96 795 -186 746 -623 1399 -1244 1861
-469 349 -1020 565 -1614 633 -101 12 -468 21 -560 15z m457 -95 c837 -68
1597 -448 2160 -1078 369 -413 634 -943 747 -1491 48 -235 60 -364 60 -650 0
-286 -12 -415 -60 -650 -180 -876 -727 -1651 -1493 -2114 -1054 -638 -2391
-618 -3425 51 -549 355 -995 894 -1238 1493 -456 1126 -247 2404 543 3325 84
98 278 291 374 371 642 540 1496 812 2332 743z" />
        <path
            d="M4970 3563 c146 -154 235 -314 292 -520 19 -68 22 -104 22 -278 0
-176 -3 -210 -22 -278 -57 -204 -146 -366 -281 -509 -103 -109 -188 -174 -311
-237 -391 -200 -833 -170 -1200 83 -104 72 -323 291 -414 416 -43 58 -86 116
-97 130 l-19 25 5 -55 c16 -153 62 -321 125 -457 155 -335 430 -545 825 -629
123 -26 380 -24 512 4 399 86 731 337 910 688 109 212 148 374 147 609 0 184
-15 279 -70 437 -44 127 -76 189 -155 309 -68 101 -219 260 -309 323 -53 38
-52 36 40 -61z" />
    </g>
</svg>